<?xml version="1.0" standalone="no"?>
<!DOCTYPE svg PUBLIC "-//W3C//DTD SVG 20010904//EN"
 "http://www.w3.org/TR/2001/REC-SVG-20010904/DTD/svg10.dtd">
<svg version="1.0" xmlns="http://www.w3.org/2000/svg"
 width="1908.000000pt" height="1112.000000pt" viewBox="0 0 1908.000000 1112.000000"
 preserveAspectRatio="xMidYMid meet">

<g transform="translate(0.000000,1112.000000) scale(0.100000,-0.100000)"
fill="#000000" stroke="none">
<path d="M4085 7431 c-75 -19 -95 -48 -270 -401 l-137 -275 -42 -6 c-83 -13
-149 -62 -194 -143 -15 -28 -17 -73 -17 -441 0 -406 0 -410 23 -452 21 -40 22
-54 22 -251 0 -270 -15 -252 208 -252 l162 0 17 27 c15 22 19 54 21 185 l3
158 1125 0 1124 0 0 -151 c0 -151 6 -180 39 -206 18 -14 318 -18 337 -5 29 19
34 56 34 247 0 184 1 198 23 238 22 42 22 46 22 452 l0 410 -31 55 c-39 70
-92 108 -171 123 l-62 11 -138 285 c-76 156 -151 301 -167 323 -57 78 17 73
-996 75 -498 0 -918 -2 -935 -6z m335 -68 c0 -5 -59 -144 -132 -310 l-133
-302 -73 -1 -72 0 14 33 c58 138 251 565 259 575 10 13 137 18 137 5z m813 0
c2 -5 -56 -144 -131 -310 l-134 -303 -274 0 c-151 0 -274 3 -274 6 0 5 258
592 267 607 2 4 125 7 273 7 148 0 271 -3 273 -7z m-1312 -853 c43 -23 97 -90
106 -133 l6 -27 975 2 976 3 8 30 c11 43 63 102 111 127 57 30 156 31 212 1
73 -38 115 -105 115 -180 0 -77 -74 -186 -145 -213 -49 -19 -135 -16 -187 8
-50 22 -105 86 -115 135 l-5 27 -973 0 -972 0 -17 -45 c-22 -57 -92 -119 -150
-134 -51 -13 -134 -1 -175 25 -32 20 -66 59 -88 99 -36 66 -9 188 54 248 62
58 179 70 264 27z m2106 -726 c3 -9 2 -24 -4 -33 -9 -15 -101 -16 -1018 -16
-917 0 -1009 1 -1018 16 -6 9 -7 24 -4 33 6 15 91 16 1022 16 931 0 1016 -1
1022 -16z"/>
<path d="M3771 6408 c-14 -7 -34 -28 -44 -46 -17 -29 -18 -39 -8 -72 26 -86
126 -97 167 -18 40 78 -41 174 -115 136z"/>
<path d="M6161 6406 c-57 -32 -68 -111 -22 -157 41 -41 90 -40 125 2 45 53 30
127 -31 158 -28 14 -42 13 -72 -3z"/>
<path d="M8147 7284 c-84 -18 -218 -67 -277 -101 -126 -73 -266 -199 -337
-303 -54 -80 -113 -209 -141 -308 -24 -87 -27 -113 -26 -247 1 -126 6 -165 27
-245 103 -392 407 -666 810 -730 102 -17 288 -8 388 19 472 123 783 561 738
1039 -40 432 -337 770 -763 872 -100 24 -315 26 -419 4z m350 -260 c358 -74
612 -429 563 -786 -48 -347 -326 -609 -676 -635 -124 -10 -311 42 -423 116
-150 100 -274 283 -312 458 -16 77 -16 235 0 303 30 124 119 278 209 362 175
164 408 230 639 182z"/>
<path d="M12420 7285 c-270 -58 -502 -223 -646 -460 -236 -388 -168 -901 160
-1213 85 -81 135 -116 231 -165 336 -170 742 -136 1040 86 67 51 135 120 135
139 0 21 -167 158 -192 158 -9 0 -43 -23 -75 -51 -73 -64 -163 -115 -261 -147
-63 -20 -97 -25 -192 -26 -136 0 -205 15 -330 77 -169 82 -310 260 -361 454
-26 100 -28 261 -4 352 86 331 367 552 703 551 154 0 296 -55 434 -167 95 -78
90 -78 202 15 94 77 96 89 18 158 -119 106 -257 182 -403 224 -96 28 -359 37
-459 15z"/>
<path d="M11166 7280 c-58 -18 -96 -73 -96 -140 0 -87 64 -146 149 -138 81 8
131 61 131 140 0 58 -30 104 -83 128 -46 21 -58 22 -101 10z"/>
<path d="M3400 7013 c-30 -12 -60 -47 -66 -79 -8 -41 0 -66 33 -98 24 -25 31
-26 128 -26 97 0 104 1 128 26 15 14 29 35 33 46 10 33 -5 83 -32 109 -23 21
-36 24 -117 26 -51 1 -99 0 -107 -4z"/>
<path d="M6379 6981 c-41 -41 -41 -98 0 -143 28 -32 33 -33 114 -36 64 -3 93
0 119 12 67 32 82 114 32 167 -27 28 -30 29 -132 29 -101 0 -104 -1 -133 -29z"/>
<path d="M13948 6541 c-150 -33 -291 -88 -312 -123 -11 -19 37 -151 67 -181
16 -16 19 -16 55 -1 215 95 443 125 529 68 36 -23 63 -74 63 -119 l0 -41 -145
-28 c-353 -67 -533 -154 -602 -290 -34 -67 -43 -178 -19 -258 20 -70 88 -147
159 -182 77 -38 195 -52 313 -37 106 13 185 41 265 95 l54 36 15 -44 c25 -73
31 -76 137 -76 75 0 95 3 99 15 4 9 1 66 -6 128 -7 61 -14 252 -16 422 -2 333
-6 360 -58 449 -36 62 -117 131 -184 157 -81 32 -289 37 -414 10z m402 -751
l0 -129 -82 -41 c-178 -87 -365 -91 -416 -9 -20 31 -17 103 5 132 42 57 152
104 353 150 155 37 140 48 140 -103z"/>
<path d="M15383 6545 c-60 -17 -113 -42 -162 -79 -37 -28 -51 -26 -51 5 0 11
-13 34 -29 50 -28 28 -33 29 -120 29 -79 0 -92 -2 -101 -19 -11 -21 -15 -1127
-4 -1155 5 -13 26 -16 125 -16 107 0 119 2 129 19 6 13 10 155 10 394 l0 374
30 45 c79 119 245 159 386 92 18 -9 41 -14 50 -12 10 2 45 43 78 91 70 102 70
107 -15 149 -94 47 -226 60 -326 33z"/>
<path d="M9606 6534 c-3 -9 -3 -21 1 -27 4 -7 10 -194 13 -417 6 -383 7 -408
27 -458 50 -123 160 -222 297 -265 55 -17 95 -22 176 -21 121 0 192 20 302 85
36 21 68 39 71 39 2 0 9 -17 15 -38 20 -66 36 -73 148 -70 l99 3 3 570 c1 314
0 580 -3 593 -5 21 -9 22 -118 22 -75 0 -117 -4 -125 -12 -9 -9 -12 -112 -12
-403 l0 -392 -64 -51 c-140 -114 -293 -145 -429 -89 -43 18 -100 86 -115 136
-8 26 -12 153 -12 395 l0 358 -29 29 c-29 28 -32 29 -134 29 -87 0 -106 -3
-111 -16z"/>
<path d="M11085 6528 c-3 -13 -4 -271 -3 -574 3 -529 4 -553 22 -573 18 -20
28 -21 125 -19 l106 3 3 570 c1 314 0 580 -3 593 -5 21 -9 22 -125 22 -116 0
-120 -1 -125 -22z"/>
</g>
</svg>
